<svg width="20" height="21" viewBox="0 0 20 21" fill="none" xmlns="http://www.w3.org/2000/svg">
<path d="M3 15C3.53043 15 4.03914 15.2107 4.41421 15.5858C4.78929 15.9609 5 16.4696 5 17C5 17.5304 4.78929 18.0391 4.41421 18.4142C4.03914 18.7893 3.53043 19 3 19C2.46957 19 1.96086 18.7893 1.58579 18.4142C1.21071 18.0391 1 17.5304 1 17C1 16.4696 1.21071 15.9609 1.58579 15.5858C1.96086 15.2107 2.46957 15 3 15ZM3 15H9.5M3 15V1H1M3 3L17 4L16.14 10.017M13.5 11H3M13 17H19M16 14V20" stroke="white" stroke-linecap="round" stroke-linejoin="round"/>
</svg>
