<svg width="22" height="22" viewBox="0 0 22 22" fill="none" xmlns="http://www.w3.org/2000/svg">
<path fill-rule="evenodd" clip-rule="evenodd" d="M7.02254 2.02811C6.41532 1.95526 5.79996 2.02417 5.21303 2.23303C4.62558 2.44207 4.07421 2.78875 3.59675 3.25891C3.11897 3.72938 2.72631 4.3128 2.44937 4.97613C2.17241 5.63954 2.01898 6.36448 2.00165 7.1045C1.98432 7.84453 2.10359 8.57841 2.34967 9.25882C2.59573 9.93918 2.96162 10.547 3.4185 11.0471L3.42442 11.0536L3.42439 11.0536L11.0093 19.503L18.5941 11.0536C18.6156 11.0297 18.6379 11.0071 18.661 10.9858C19.0847 10.499 19.4246 9.91693 19.6563 9.27C19.8996 8.59069 20.0167 7.85874 19.9981 7.12108C19.9794 6.38342 19.8255 5.66106 19.549 5.00001C19.2724 4.33903 18.8809 3.75756 18.4048 3.2883C17.929 2.81935 17.3797 2.47306 16.7943 2.26351C16.2095 2.05414 15.5962 1.98381 14.9907 2.05439C14.385 2.12499 13.7926 2.33601 13.2507 2.68069C12.7083 3.02569 12.2265 3.49847 11.8406 4.07571C11.6545 4.35409 11.3414 4.52085 11.0066 4.51996C10.6717 4.51906 10.3595 4.35063 10.1749 4.07126C9.79058 3.48958 9.30909 3.01245 8.76615 2.66364C8.22371 2.31515 7.62999 2.101 7.02254 2.02811ZM20.0115 12.4687L11.7534 21.668C11.5637 21.8793 11.2932 22 11.0093 22C10.7253 22 10.4548 21.8793 10.2651 21.668L1.93893 12.3928C1.29853 11.6909 0.799995 10.8545 0.468894 9.93903C0.137285 9.02213 -0.0208399 8.04147 0.00219948 7.05768C0.0252388 6.07389 0.22907 5.10309 0.603757 4.20561C0.978473 3.30806 1.51773 2.49925 2.19347 1.83385C2.86952 1.16813 3.66827 0.65988 4.54252 0.348776C5.4173 0.0374847 6.34356 -0.0676986 7.2608 0.0423571C8.1778 0.152384 9.05836 0.474196 9.84718 0.980971C10.2696 1.25237 10.6603 1.57328 11.0136 1.93618C11.3666 1.57768 11.7564 1.26088 12.1773 0.993144C12.9658 0.491636 13.8447 0.174434 14.7592 0.0678404C15.6739 -0.0387796 16.5969 0.0685374 17.4684 0.380532C18.3394 0.692339 19.1351 1.19991 19.8087 1.86388C20.4821 2.52754 21.0198 3.33365 21.394 4.22808C21.7682 5.12244 21.9726 6.08984 21.9974 7.07052C22.0222 8.05119 21.867 9.02917 21.5392 9.94437C21.2114 10.8596 20.7165 11.6967 20.0797 12.4002C20.0578 12.4243 20.035 12.4472 20.0115 12.4687Z" fill="white"/>
</svg>
