<svg width="18" height="20" viewBox="0 0 18 20" fill="none" xmlns="http://www.w3.org/2000/svg">
<path d="M6.33936 15V16C6.33936 16.7956 6.65543 17.5587 7.21803 18.1213C7.78064 18.6839 8.54371 19 9.33936 19C10.135 19 10.8981 18.6839 11.4607 18.1213C12.0233 17.5587 12.3394 16.7956 12.3394 16V15M7.33936 3C7.33936 2.46957 7.55007 1.96086 7.92514 1.58579C8.30022 1.21071 8.80892 1 9.33936 1C9.86979 1 10.3785 1.21071 10.7536 1.58579C11.1286 1.96086 11.3394 2.46957 11.3394 3C12.4878 3.54303 13.4668 4.38833 14.1714 5.4453C14.8761 6.50227 15.2798 7.73107 15.3394 9V12C15.4146 12.6217 15.6348 13.2171 15.9822 13.7381C16.3295 14.2592 16.7944 14.6914 17.3394 15H1.33936C1.88429 14.6914 2.34916 14.2592 2.69654 13.7381C3.04392 13.2171 3.2641 12.6217 3.33936 12V9C3.39892 7.73107 3.80266 6.50227 4.50731 5.4453C5.21195 4.38833 6.19095 3.54303 7.33936 3Z" stroke="white" stroke-linecap="round" stroke-linejoin="round"/>
</svg>
