<svg width="13" height="15" viewBox="0 0 13 15" fill="none" xmlns="http://www.w3.org/2000/svg">
<path d="M0.5 1.49902C0.5 1.23381 0.605357 0.979453 0.792893 0.791917C0.98043 0.60438 1.23478 0.499023 1.5 0.499023H3.5C3.76522 0.499023 4.01957 0.60438 4.20711 0.791917C4.39464 0.979453 4.5 1.23381 4.5 1.49902V13.499C4.5 13.7642 4.39464 14.0186 4.20711 14.2061C4.01957 14.3937 3.76522 14.499 3.5 14.499H1.5C1.23478 14.499 0.98043 14.3937 0.792893 14.2061C0.605357 14.0186 0.5 13.7642 0.5 13.499V1.49902Z" fill="white"/>
<path d="M8.5 1.5C8.5 1.23478 8.60536 0.98043 8.79289 0.792893C8.98043 0.605357 9.23478 0.5 9.5 0.5H11.5C11.7652 0.5 12.0196 0.605357 12.2071 0.792893C12.3946 0.98043 12.5 1.23478 12.5 1.5V13.5C12.5 13.7652 12.3946 14.0196 12.2071 14.2071C12.0196 14.3946 11.7652 14.5 11.5 14.5H9.5C9.23478 14.5 8.98043 14.3946 8.79289 14.2071C8.60536 14.0196 8.5 13.7652 8.5 13.5V1.5Z" fill="white"/>
<path d="M0.5 1.49902C0.5 1.23381 0.605357 0.979453 0.792893 0.791917C0.98043 0.60438 1.23478 0.499023 1.5 0.499023H3.5C3.76522 0.499023 4.01957 0.60438 4.20711 0.791917C4.39464 0.979453 4.5 1.23381 4.5 1.49902V13.499C4.5 13.7642 4.39464 14.0186 4.20711 14.2061C4.01957 14.3937 3.76522 14.499 3.5 14.499H1.5C1.23478 14.499 0.98043 14.3937 0.792893 14.2061C0.605357 14.0186 0.5 13.7642 0.5 13.499V1.49902Z" stroke="white" stroke-linecap="round" stroke-linejoin="round"/>
<path d="M8.5 1.5C8.5 1.23478 8.60536 0.98043 8.79289 0.792893C8.98043 0.605357 9.23478 0.5 9.5 0.5H11.5C11.7652 0.5 12.0196 0.605357 12.2071 0.792893C12.3946 0.98043 12.5 1.23478 12.5 1.5V13.5C12.5 13.7652 12.3946 14.0196 12.2071 14.2071C12.0196 14.3946 11.7652 14.5 11.5 14.5H9.5C9.23478 14.5 8.98043 14.3946 8.79289 14.2071C8.60536 14.0196 8.5 13.7652 8.5 13.5V1.5Z" stroke="white" stroke-linecap="round" stroke-linejoin="round"/>
</svg>
