<svg width="20" height="20" viewBox="0 0 20 20" fill="none" xmlns="http://www.w3.org/2000/svg">
<path d="M4.50736 16.849C4.75486 16.0252 5.26132 15.3032 5.9516 14.79C6.64188 14.2768 7.4792 13.9997 8.33936 14H12.3394C13.2006 13.9997 14.039 14.2774 14.7297 14.7918C15.4205 15.3062 15.9268 16.0298 16.1734 16.855M1.33936 10C1.33936 11.1819 1.57215 12.3522 2.02444 13.4442C2.47673 14.5361 3.13967 15.5282 3.97539 16.364C4.81112 17.1997 5.80327 17.8626 6.8952 18.3149C7.98713 18.7672 9.15746 19 10.3394 19C11.5213 19 12.6916 18.7672 13.7835 18.3149C14.8754 17.8626 15.8676 17.1997 16.7033 16.364C17.539 15.5282 18.202 14.5361 18.6543 13.4442C19.1066 12.3522 19.3394 11.1819 19.3394 10C19.3394 8.8181 19.1066 7.64778 18.6543 6.55585C18.202 5.46392 17.539 4.47177 16.7033 3.63604C15.8676 2.80031 14.8754 2.13738 13.7835 1.68508C12.6916 1.23279 11.5213 1 10.3394 1C9.15746 1 7.98713 1.23279 6.8952 1.68508C5.80327 2.13738 4.81112 2.80031 3.97539 3.63604C3.13967 4.47177 2.47673 5.46392 2.02444 6.55585C1.57215 7.64778 1.33936 8.8181 1.33936 10ZM7.33936 8C7.33936 8.79565 7.65543 9.55871 8.21803 10.1213C8.78064 10.6839 9.54371 11 10.3394 11C11.135 11 11.8981 10.6839 12.4607 10.1213C13.0233 9.55871 13.3394 8.79565 13.3394 8C13.3394 7.20435 13.0233 6.44129 12.4607 5.87868C11.8981 5.31607 11.135 5 10.3394 5C9.54371 5 8.78064 5.31607 8.21803 5.87868C7.65543 6.44129 7.33936 7.20435 7.33936 8Z" stroke="white" stroke-linecap="round" stroke-linejoin="round"/>
</svg>
