<svg width="24" height="24" viewBox="0 0 24 24" fill="none" xmlns="http://www.w3.org/2000/svg">
<path fill-rule="evenodd" clip-rule="evenodd" d="M12.0015 9.0014C11.6075 9.0014 11.2174 9.079 10.8534 9.22977C10.4894 9.38053 10.1587 9.60152 9.88011 9.88011C9.60152 10.1587 9.38053 10.4894 9.22977 10.8534C9.079 11.2174 9.0014 11.6075 9.0014 12.0015C9.0014 12.3955 9.079 12.7856 9.22977 13.1496C9.38053 13.5136 9.60152 13.8443 9.88011 14.1229C10.2706 14.5134 10.2706 15.1466 9.88011 15.5371C9.48958 15.9276 8.85642 15.9276 8.46589 15.5371C8.00159 15.0728 7.63329 14.5216 7.38201 13.915C7.13073 13.3083 7.0014 12.6581 7.0014 12.0015C7.0014 11.3449 7.13073 10.6947 7.38201 10.088C7.63329 9.4814 8.00159 8.9302 8.46589 8.46589C8.9302 8.00159 9.4814 7.63329 10.088 7.38201C10.6947 7.13073 11.3449 7.0014 12.0015 7.0014C12.6581 7.0014 13.3083 7.13073 13.915 7.38201C14.5216 7.63329 15.0728 8.00159 15.5371 8.46589C15.9276 8.85642 15.9276 9.48958 15.5371 9.88011C15.1466 10.2706 14.5134 10.2706 14.1229 9.88011C13.8443 9.60152 13.5136 9.38053 13.1496 9.22977C12.7856 9.079 12.3955 9.0014 12.0015 9.0014Z" fill="white"/>
<path fill-rule="evenodd" clip-rule="evenodd" d="M10.7181 11.8895C11.1696 11.5714 11.7935 11.6796 12.1115 12.1311L12.2786 12.3683C13.1356 13.5229 14.3512 14.3608 15.7353 14.7507C17.123 15.1417 18.6013 15.0602 19.9377 14.5191C20.3114 14.3678 20.7395 14.4557 21.0233 14.7421C21.3071 15.0285 21.3912 15.4574 21.2364 15.8298C20.6059 17.347 19.6113 18.6855 18.3405 19.7269C17.0696 20.7683 15.5618 21.4805 13.9503 21.8006C12.3387 22.1207 10.6732 22.0387 9.10082 21.5621C7.52848 21.0854 6.09781 20.2286 4.93532 19.0675C4.54456 18.6773 4.54418 18.0441 4.93446 17.6533C5.32475 17.2626 5.95792 17.2622 6.34868 17.6525C7.27867 18.5813 8.4232 19.2667 9.68108 19.6481C10.939 20.0294 12.2714 20.095 13.5606 19.8389C14.8499 19.5828 16.0561 19.013 17.0728 18.1799C17.5173 17.8157 17.9195 17.406 18.2736 16.9589C17.2449 17.0531 16.2007 16.9597 15.193 16.6758C13.3783 16.1645 11.7851 15.0644 10.664 13.5486L10.6505 13.5299L10.4765 13.2829C10.1584 12.8314 10.2666 12.2075 10.7181 11.8895Z" fill="white"/>
<path fill-rule="evenodd" clip-rule="evenodd" d="M2 12C2 11.4477 2.44772 11 3 11H4C4.55228 11 5 11.4477 5 12C5 12.5523 4.55228 13 4 13H3C2.44772 13 2 12.5523 2 12Z" fill="white"/>
<path fill-rule="evenodd" clip-rule="evenodd" d="M12 2C12.5523 2 13 2.44772 13 3V4C13 4.55228 12.5523 5 12 5C11.4477 5 11 4.55228 11 4V3C11 2.44772 11.4477 2 12 2Z" fill="white"/>
<path fill-rule="evenodd" clip-rule="evenodd" d="M4.89289 4.89289C5.28342 4.50237 5.91658 4.50237 6.30711 4.89289L7.00711 5.59289C7.39763 5.98342 7.39763 6.61658 7.00711 7.00711C6.61658 7.39763 5.98342 7.39763 5.59289 7.00711L4.89289 6.30711C4.50237 5.91658 4.50237 5.28342 4.89289 4.89289Z" fill="white"/>
<path fill-rule="evenodd" clip-rule="evenodd" d="M21.7071 2.29289C22.0976 2.68342 22.0976 3.31658 21.7071 3.70711L3.70711 21.7071C3.31658 22.0976 2.68342 22.0976 2.29289 21.7071C1.90237 21.3166 1.90237 20.6834 2.29289 20.2929L20.2929 2.29289C20.6834 1.90237 21.3166 1.90237 21.7071 2.29289Z" fill="white"/>
</svg>
