<svg width="18" height="12" viewBox="0 0 18 12" fill="none" xmlns="http://www.w3.org/2000/svg">
<path fill-rule="evenodd" clip-rule="evenodd" d="M7.83746 0.842117C8.67003 0.321765 9.74996 0.920324 9.74996 1.90212V4.64681L15.8375 0.842117C16.67 0.321765 17.75 0.920324 17.75 1.90212V10.0979C17.75 11.0797 16.67 11.6782 15.8375 11.1579L9.74996 7.35318V10.0979C9.74996 11.0797 8.67002 11.6782 7.83746 11.1579L1.28086 7.05999C0.497524 6.5704 0.497527 5.42958 1.28086 4.93999L7.83746 0.842117ZM8.24996 2.35318L2.41506 5.99999L8.24996 9.64681V2.35318ZM8.63246 9.88587L8.63215 9.88567ZM16.25 2.35318L10.4151 5.99999L16.25 9.64681V2.35318ZM16.6325 9.88587L16.632 9.88559ZM10.0759 6.21199L10.0763 6.21175Z" fill="white"/>
</svg>
