<svg width="18" height="20" viewBox="0 0 18 20" fill="none" xmlns="http://www.w3.org/2000/svg">
<path fill-rule="evenodd" clip-rule="evenodd" d="M11.2299 6.81655C11.0158 4.71088 9.29544 3.07777 7.2419 3.09035C5.14261 3.1032 3.35936 4.77365 3.18667 6.8779C3.05781 8.44815 2.63801 9.91742 1.73764 11.4623C1.43327 11.9845 1.43116 12.6409 1.67431 13.1688C1.91286 13.6867 2.34122 14 2.8639 14H7.15939C7.57361 14 7.90939 14.3358 7.90939 14.75C7.90939 15.1642 7.57361 15.5 7.15939 15.5H2.8639C1.64193 15.5 0.743923 14.7343 0.31189 13.7963C-0.115543 12.8684 -0.132455 11.6921 0.441678 10.707C1.22388 9.36486 1.58023 8.11344 1.6917 6.75521C1.92698 3.88822 4.34414 1.60806 7.23271 1.59037C10.1216 1.57268 12.4364 3.85337 12.7222 6.66486C12.7548 6.98562 12.8002 7.29893 12.86 7.60744C12.9387 8.01411 12.6728 8.40759 12.2662 8.48631C11.8595 8.56503 11.466 8.29918 11.3873 7.89252C11.3185 7.53713 11.2667 7.17919 11.2299 6.81655Z" fill="white"/>
<path fill-rule="evenodd" clip-rule="evenodd" d="M7.15938 0C7.5736 0 7.90938 0.335786 7.90938 0.75V1.75C7.90938 2.16421 7.5736 2.5 7.15938 2.5C6.74517 2.5 6.40938 2.16421 6.40938 1.75V0.75C6.40938 0.335786 6.74517 0 7.15938 0Z" fill="white"/>
<path fill-rule="evenodd" clip-rule="evenodd" d="M5.15938 14C5.5736 14 5.90938 14.3358 5.90938 14.75C5.90938 15.4404 6.46903 16 7.15938 16C7.5736 16 7.90938 16.3358 7.90938 16.75C7.90938 17.1642 7.5736 17.5 7.15938 17.5C5.6406 17.5 4.40938 16.2688 4.40938 14.75C4.40938 14.3358 4.74517 14 5.15938 14Z" fill="white"/>
<path fill-rule="evenodd" clip-rule="evenodd" d="M13.1594 11.5C11.3645 11.5 9.90938 12.9551 9.90938 14.75C9.90938 16.5449 11.3645 18 13.1594 18C14.9543 18 16.4094 16.5449 16.4094 14.75C16.4094 12.9551 14.9543 11.5 13.1594 11.5ZM8.40938 14.75C8.40938 12.1266 10.536 10 13.1594 10C15.7827 10 17.9094 12.1266 17.9094 14.75C17.9094 17.3734 15.7827 19.5 13.1594 19.5C10.536 19.5 8.40938 17.3734 8.40938 14.75Z" fill="white"/>
<path fill-rule="evenodd" clip-rule="evenodd" d="M13.1591 11.9999C13.5734 11.9999 13.9091 12.3357 13.9091 12.7499V14.75C13.9091 15.1642 13.5734 15.5 13.1591 15.5C12.7449 15.5 12.4091 15.1642 12.4091 14.75V12.7499C12.4091 12.3357 12.7449 11.9999 13.1591 11.9999Z" fill="white"/>
<path d="M14.1594 16.75C14.1594 17.3023 13.7117 17.75 13.1594 17.75C12.6071 17.75 12.1594 17.3023 12.1594 16.75C12.1594 16.1977 12.6071 15.75 13.1594 15.75C13.7117 15.75 14.1594 16.1977 14.1594 16.75Z" fill="white"/>
</svg>
