<svg width="15" height="18" viewBox="0 0 15 18" fill="none" xmlns="http://www.w3.org/2000/svg">
<path d="M1.3397 11.3346L0.691717 10.957L1.3397 11.3346ZM13.663 11.3869L13.0132 11.7615L13.0132 11.7615L13.663 11.3869ZM7.48735 2.59036L7.48275 1.84037L7.48735 2.59036ZM12.2261 6.99126L11.48 7.06713L12.2261 6.99126ZM2.68922 7.06656L3.43671 7.1279L2.68922 7.06656ZM8.15942 1C8.15942 0.585786 7.82364 0.25 7.40942 0.25C6.99521 0.25 6.65942 0.585786 6.65942 1H8.15942ZM6.65942 2C6.65942 2.41421 6.99521 2.75 7.40942 2.75C7.82364 2.75 8.15942 2.41421 8.15942 2H6.65942ZM11.48 7.06713C11.6447 8.68638 12.1036 10.1837 13.0132 11.7615L14.3127 11.0124C13.5097 9.61935 13.1157 8.32587 12.9723 6.91538L11.48 7.06713ZM11.863 14.25H3.11394V15.75H11.863V14.25ZM1.98768 11.7123C2.88804 10.1674 3.30785 8.69815 3.43671 7.1279L1.94174 7.00521C1.83027 8.36344 1.47392 9.61486 0.691717 10.957L1.98768 11.7123ZM3.11394 14.25C2.59126 14.25 2.1629 13.9367 1.92435 13.4188C1.6812 12.8909 1.68331 12.2345 1.98768 11.7123L0.691717 10.957C0.117585 11.9421 0.134496 13.1184 0.56193 14.0463C0.993962 14.9843 1.89197 15.75 3.11394 15.75V14.25ZM13.0132 11.7615C13.3137 12.2828 13.309 12.9236 13.0646 13.4358C12.8248 13.9384 12.3938 14.25 11.863 14.25V15.75C13.0725 15.75 13.976 15.0088 14.4184 14.0818C14.8562 13.1644 14.8814 11.9987 14.3127 11.0124L13.0132 11.7615ZM7.49194 3.34034C9.54535 3.32777 11.2658 4.96131 11.48 7.06713L12.9723 6.91538C12.6864 4.10406 10.3717 1.82268 7.48275 1.84037L7.49194 3.34034ZM7.48275 1.84037C4.59418 1.85806 2.17702 4.13822 1.94174 7.00521L3.43671 7.1279C3.6094 5.02365 5.39265 3.3532 7.49194 3.34034L7.48275 1.84037ZM6.65942 1V2H8.15942V1H6.65942ZM8.65942 15C8.65942 15.6904 8.09978 16.25 7.40942 16.25V17.75C8.92821 17.75 10.1594 16.5188 10.1594 15H8.65942ZM7.40942 16.25C6.71907 16.25 6.15942 15.6904 6.15942 15H4.65942C4.65942 16.5188 5.89064 17.75 7.40942 17.75V16.25Z" fill="white"/>
</svg>
