<svg width="21" height="15" viewBox="0 0 21 15" fill="none" xmlns="http://www.w3.org/2000/svg">
<path fill-rule="evenodd" clip-rule="evenodd" d="M0.25 1C0.25 0.585786 0.585786 0.25 1 0.25H1.76393C2.80556 0.25 3.75778 0.838506 4.22361 1.77016L4.46353 2.25H19.389C20.1787 2.25 20.7705 2.9732 20.6143 3.74729L19.2426 10.544C18.9836 11.8272 17.856 12.75 16.5469 12.75H7.50449C6.20231 12.75 5.07864 11.8367 4.81253 10.562L3.2857 3.24845L2.88197 2.44098C2.67023 2.0175 2.2374 1.75 1.76393 1.75H1C0.585786 1.75 0.25 1.41421 0.25 1ZM4.92275 3.75L6.28087 10.2555C6.40183 10.8349 6.91259 11.25 7.50449 11.25H16.5469C17.1419 11.25 17.6545 10.8306 17.7722 10.2473L19.0835 3.75H4.92275Z" fill="white"/>
<path d="M17 14C17 14.5523 16.5523 15 16 15C15.4477 15 15 14.5523 15 14C15 13.4477 15.4477 13 16 13C16.5523 13 17 13.4477 17 14Z" fill="white"/>
<path d="M9 14C9 14.5523 8.55228 15 8 15C7.44772 15 7 14.5523 7 14C7 13.4477 7.44772 13 8 13C8.55228 13 9 13.4477 9 14Z" fill="white"/>
</svg>
