<svg width="22" height="22" viewBox="0 0 22 22" fill="none" xmlns="http://www.w3.org/2000/svg">
<path fill-rule="evenodd" clip-rule="evenodd" d="M11 1.75C5.89137 1.75 1.75 5.89137 1.75 11C1.75 16.1086 5.89137 20.25 11 20.25C16.1086 20.25 20.25 16.1086 20.25 11C20.25 5.89137 16.1086 1.75 11 1.75ZM0.25 11C0.25 5.06294 5.06294 0.25 11 0.25C16.9371 0.25 21.75 5.06294 21.75 11C21.75 16.9371 16.9371 21.75 11 21.75C5.06294 21.75 0.25 16.9371 0.25 11ZM11 7.75C9.20507 7.75 7.75 9.20507 7.75 11C7.75 12.7949 9.20507 14.25 11 14.25C12.7949 14.25 14.25 12.7949 14.25 11C14.25 9.20507 12.7949 7.75 11 7.75ZM6.25 11C6.25 8.37665 8.37665 6.25 11 6.25C13.6234 6.25 15.75 8.37665 15.75 11C15.75 13.6234 13.6234 15.75 11 15.75C8.37665 15.75 6.25 13.6234 6.25 11ZM18 10.25C18.4142 10.25 18.75 10.5858 18.75 11C18.75 15.2802 15.2802 18.75 11 18.75C10.5858 18.75 10.25 18.4142 10.25 18C10.25 17.5858 10.5858 17.25 11 17.25C14.4518 17.25 17.25 14.4518 17.25 11C17.25 10.5858 17.5858 10.25 18 10.25Z" fill="black"/>
</svg>
