<svg width="20" height="20" viewBox="0 0 20 20" fill="none" xmlns="http://www.w3.org/2000/svg">
<path fill-rule="evenodd" clip-rule="evenodd" d="M3 1.75C2.30964 1.75 1.75 2.30964 1.75 3V17C1.75 17.6904 2.30964 18.25 3 18.25H17C17.6904 18.25 18.25 17.6904 18.25 17V7.82843C18.25 7.49691 18.1183 7.17896 17.8839 6.94454L13.0555 2.11612C12.821 1.8817 12.5031 1.75 12.1716 1.75H3ZM0.25 3C0.25 1.48122 1.48122 0.25 3 0.25H12.1716C12.9009 0.25 13.6004 0.539731 14.1161 1.05546L18.9445 5.88388C19.4603 6.39961 19.75 7.09908 19.75 7.82843V17C19.75 18.5188 18.5188 19.75 17 19.75H3C1.48122 19.75 0.25 18.5188 0.25 17V3Z" fill="black"/>
<path fill-rule="evenodd" clip-rule="evenodd" d="M6 15.75C5.58579 15.75 5.25 15.4142 5.25 15L5.25 6.81066L4.53033 7.53033C4.23744 7.82322 3.76256 7.82322 3.46967 7.53033C3.17678 7.23744 3.17678 6.76256 3.46967 6.46967L5.46967 4.46967C5.76256 4.17678 6.23744 4.17678 6.53033 4.46967L8.53033 6.46967C8.82322 6.76256 8.82322 7.23744 8.53033 7.53033C8.23744 7.82322 7.76256 7.82322 7.46967 7.53033L6.75 6.81066V15C6.75 15.4142 6.41421 15.75 6 15.75Z" fill="black"/>
<path fill-rule="evenodd" clip-rule="evenodd" d="M13.75 1V5C13.75 5.69036 14.3096 6.25 15 6.25H19V7.75H15C13.4812 7.75 12.25 6.51878 12.25 5V1H13.75Z" fill="black"/>
</svg>
