<svg width="20" height="20" viewBox="0 0 20 20" fill="none" xmlns="http://www.w3.org/2000/svg">
<path fill-rule="evenodd" clip-rule="evenodd" d="M16.1161 1.32322C16.6043 0.835069 17.3957 0.835068 17.8839 1.32322L18.6768 2.11612C19.1649 2.60427 19.1649 3.39573 18.6768 3.88388L11.6282 10.9324C11.468 11.0926 11.2673 11.2062 11.0475 11.2612L9.18189 11.7276C8.92631 11.7915 8.65594 11.7166 8.46966 11.5303C8.28337 11.344 8.20848 11.0737 8.27238 10.8181L8.73879 8.95246C8.79374 8.73267 8.90739 8.53194 9.06758 8.37174L16.1161 1.32322ZM17 2.56066L10.1772 9.38344L10.0308 9.96922L10.6165 9.82278L17.4393 3L17 2.56066Z" fill="black"/>
<path fill-rule="evenodd" clip-rule="evenodd" d="M3 1.75C2.30964 1.75 1.75 2.30964 1.75 3V17C1.75 17.6904 2.30964 18.25 3 18.25H17C17.6904 18.25 18.25 17.6904 18.25 17V10C18.25 9.58579 18.5858 9.25 19 9.25C19.4142 9.25 19.75 9.58579 19.75 10V17C19.75 18.5188 18.5188 19.75 17 19.75H3C1.48122 19.75 0.25 18.5188 0.25 17V3C0.25 1.48122 1.48122 0.25 3 0.25H10C10.4142 0.25 10.75 0.585786 10.75 1C10.75 1.41421 10.4142 1.75 10 1.75H3Z" fill="black"/>
</svg>
