<svg width="16" height="19" viewBox="0 0 16 19" fill="none" xmlns="http://www.w3.org/2000/svg">
<path fill-rule="evenodd" clip-rule="evenodd" d="M2.40381 8.15935C2.31241 7.99993 2.22204 7.83058 2.13398 7.65097C1.75725 6.88266 0.740111 6.75472 0.495989 7.57486C0.163652 8.69137 0 9.93913 0 10.9797C0 15.4092 3.58172 19 8 19C12.4183 19 16 15.4092 16 10.9797C16 7.72561 14.067 4.92416 11.2893 3.66652C11.1137 3.58699 10.9315 3.51051 10.748 3.4335C9.75449 3.01637 8.72352 2.58355 8.48948 1.56583C8.45493 1.41557 8.42772 1.25291 8.4074 1.0755C8.31207 0.242949 7.3883 -0.280026 6.75442 0.268079C4.53957 2.18321 3.62617 4.14927 3.87146 7.6887C3.88224 7.84428 3.89526 8.0029 3.9105 8.16469C3.9334 8.4076 3.96131 8.65766 3.9942 8.9153C4.00308 8.98486 4.01232 9.05497 4.02193 9.12565C4.08092 9.55976 3.64375 9.81401 3.35239 9.48683C3.28568 9.41191 3.21673 9.33124 3.14622 9.24466C3.00221 9.06782 2.85166 8.86633 2.70022 8.63885C2.60127 8.49024 2.50195 8.33053 2.40381 8.15935ZM8 17.5C11.5863 17.5 14.5 14.5843 14.5 10.9797C14.5 8.33437 12.9299 6.05593 10.6706 5.03298C10.5694 4.98716 10.4374 4.93165 10.2866 4.86827C9.85209 4.68557 9.26194 4.43746 8.8062 4.16746C8.13965 3.77258 7.36013 3.1267 7.06133 2.03583C6.35648 2.76299 5.91399 3.47489 5.65107 4.2899C5.3017 5.3729 5.21882 6.79388 5.50826 8.92365C5.61187 9.68596 5.28248 10.494 4.54755 10.9027C3.75162 11.3453 2.81071 11.1341 2.23218 10.4844C2.02747 10.2545 1.80876 9.9837 1.58787 9.66932C1.52931 10.1263 1.5 10.5732 1.5 10.9797C1.5 14.5843 4.41373 17.5 8 17.5Z" fill="black"/>
</svg>
