<svg width="18" height="12" viewBox="0 0 18 12" fill="none" xmlns="http://www.w3.org/2000/svg">
<path fill-rule="evenodd" clip-rule="evenodd" d="M1.75 2.35318V9.64681L7.5849 5.99999L1.75 2.35318ZM1.3675 9.88587C1.36762 9.8858 1.36773 9.88572 1.36785 9.88565ZM0.25 1.90212C0.25 0.920324 1.32993 0.321765 2.1625 0.842117L8.25 4.64681V1.90212C8.25 0.920324 9.32994 0.321765 10.1625 0.842117L16.7191 4.93999C17.5024 5.42958 17.5024 6.57041 16.7191 7.05999L10.1625 11.1579C9.32994 11.6782 8.25 11.0797 8.25 10.0979V7.35318L2.1625 11.1579C1.32994 11.6782 0.25 11.0797 0.25 10.0979V1.90212ZM9.75 2.35318V9.64681L15.5849 5.99999L9.75 2.35318ZM15.9241 6.21199C15.924 6.21191 15.9238 6.21183 15.9237 6.21175ZM9.3675 9.88587C9.36765 9.88578 9.36779 9.88568 9.36794 9.88559Z" fill="black"/>
</svg>
