<svg width="18" height="18" viewBox="0 0 18 18" fill="none" xmlns="http://www.w3.org/2000/svg">
<path fill-rule="evenodd" clip-rule="evenodd" d="M0.25 8C0.25 6.48122 1.48122 5.25 3 5.25H6.75V12.75H3C1.48122 12.75 0.25 11.5188 0.25 10V8ZM3 6.75C2.30964 6.75 1.75 7.30964 1.75 8V10C1.75 10.6904 2.30964 11.25 3 11.25H5.25V6.75H3Z" fill="white"/>
<path fill-rule="evenodd" clip-rule="evenodd" d="M13.25 2.35319V3.00001C13.25 3.41422 13.5858 3.75001 14 3.75001C14.4142 3.75001 14.75 3.41422 14.75 3.00001V1.90213C14.75 0.920339 13.6701 0.32178 12.8375 0.842132L5.25 5.58432V12C5.25 12.4142 5.58579 12.75 6 12.75C6.41421 12.75 6.75 12.4142 6.75 12V6.41569L13.25 2.35319ZM14 8.25001C14.4142 8.25001 14.75 8.58579 14.75 9.00001V16.0979C14.75 17.0797 13.6701 17.6782 12.8375 17.1579L9.6025 15.136C9.25125 14.9165 9.14447 14.4538 9.364 14.1025C9.58353 13.7513 10.0462 13.6445 10.3975 13.864L13.25 15.6468V9.00001C13.25 8.58579 13.5858 8.25001 14 8.25001Z" fill="white"/>
<path fill-rule="evenodd" clip-rule="evenodd" d="M17.5078 2.44806C17.8126 2.7285 17.8324 3.20296 17.552 3.5078L6.05195 16.0078C5.77151 16.3126 5.29704 16.3324 4.99221 16.052C4.68738 15.7715 4.66761 15.297 4.94806 14.9922L16.4481 2.49221C16.7285 2.18738 17.203 2.16761 17.5078 2.44806Z" fill="white"/>
</svg>
