<svg width="13" height="12" viewBox="0 0 13 12" fill="none" xmlns="http://www.w3.org/2000/svg">
<path fill-rule="evenodd" clip-rule="evenodd" d="M1.75 2.35318V9.64681L7.5849 5.99999L1.75 2.35318ZM1.3675 9.88587C1.36762 9.8858 1.36773 9.88572 1.36785 9.88565ZM0.25 1.90212C0.25 0.920324 1.32993 0.321765 2.1625 0.842117L8.7191 4.93999C9.50244 5.42958 9.50244 6.5704 8.7191 7.05999L2.1625 11.1579C1.32994 11.6782 0.25 11.0797 0.25 10.0979V1.90212ZM12 1.24999C12.4142 1.24999 12.75 1.58578 12.75 1.99999V9.99999C12.75 10.4142 12.4142 10.75 12 10.75C11.5858 10.75 11.25 10.4142 11.25 9.99999V1.99999C11.25 1.58578 11.5858 1.24999 12 1.24999Z" fill="black"/>
</svg>
