<svg width="20" height="21" viewBox="0 0 20 21" fill="none" xmlns="http://www.w3.org/2000/svg">
<path fill-rule="evenodd" clip-rule="evenodd" d="M8.99998 1.75C5.81621 1.75 3.08839 4.68603 3.08839 8.5C3.08839 9.69337 2.67348 10.8018 2.33012 11.6898C2.30983 11.7423 2.28984 11.7939 2.27018 11.8446C2.1162 12.2416 1.98255 12.5862 1.88577 12.9088C1.77656 13.2729 1.73701 13.5397 1.75357 13.7422C1.76797 13.9182 1.82437 14.0549 1.95861 14.1894C2.11079 14.342 2.3987 14.5256 2.93799 14.6951C4.0286 15.0379 5.90085 15.25 8.99998 15.25C9.41419 15.25 9.74998 15.5858 9.74998 16C9.74998 16.4142 9.41419 16.75 8.99998 16.75C5.88161 16.75 3.81242 16.5423 2.4882 16.1261C1.82008 15.9161 1.28224 15.6354 0.896631 15.2488C0.493087 14.8442 0.299674 14.367 0.258563 13.8644C0.21961 13.3883 0.318845 12.9118 0.449033 12.4778C0.56405 12.0944 0.720956 11.6903 0.871597 11.3022C0.891568 11.2508 0.911429 11.1996 0.931068 11.1488C1.28163 10.2423 1.58839 9.3777 1.58839 8.5C1.58839 4.0297 4.82556 0.25 8.99998 0.25C13.1744 0.25 16.4116 4.0297 16.4116 8.5C16.4116 8.91421 16.0758 9.25 15.6616 9.25C15.2473 9.25 14.9116 8.91421 14.9116 8.5C14.9116 4.68603 12.1837 1.75 8.99998 1.75Z" fill="black"/>
<path fill-rule="evenodd" clip-rule="evenodd" d="M4.99997 15.25C5.41419 15.25 5.74997 15.5858 5.74997 16C5.74997 16.5394 6.03976 17.085 6.62155 17.5213C7.20357 17.9578 8.04199 18.25 8.99997 18.25C9.41419 18.25 9.74997 18.5858 9.74997 19C9.74997 19.4142 9.41419 19.75 8.99997 19.75C7.74882 19.75 6.58724 19.3706 5.72155 18.7213C4.85562 18.0719 4.24997 17.1174 4.24997 16C4.24997 15.5858 4.58576 15.25 4.99997 15.25Z" fill="black"/>
<path fill-rule="evenodd" clip-rule="evenodd" d="M15 12.75C13.205 12.75 11.75 14.2051 11.75 16C11.75 17.7949 13.205 19.25 15 19.25C16.7949 19.25 18.25 17.7949 18.25 16C18.25 14.2051 16.7949 12.75 15 12.75ZM10.25 16C10.25 13.3766 12.3766 11.25 15 11.25C17.6233 11.25 19.75 13.3766 19.75 16C19.75 18.6234 17.6233 20.75 15 20.75C12.3766 20.75 10.25 18.6234 10.25 16Z" fill="black"/>
<path fill-rule="evenodd" clip-rule="evenodd" d="M14.9997 13.2499C15.4139 13.2499 15.7497 13.5857 15.7497 13.9999V16C15.7497 16.4142 15.4139 16.75 14.9997 16.75C14.5855 16.75 14.2497 16.4142 14.2497 16V13.9999C14.2497 13.5857 14.5855 13.2499 14.9997 13.2499Z" fill="black"/>
<path d="M16 18C16 18.5523 15.5523 19 15 19C14.4477 19 14 18.5523 14 18C14 17.4477 14.4477 17 15 17C15.5523 17 16 17.4477 16 18Z" fill="black"/>
</svg>
