<svg width="18" height="20" viewBox="0 0 18 20" fill="none" xmlns="http://www.w3.org/2000/svg">
<path fill-rule="evenodd" clip-rule="evenodd" d="M8.99998 1.75C5.81621 1.75 3.08839 4.68603 3.08839 8.5C3.08839 9.69337 2.67348 10.8018 2.33012 11.6898C2.30983 11.7423 2.28984 11.7938 2.27018 11.8445C2.1162 12.2416 1.98255 12.5862 1.88577 12.9088C1.77656 13.2729 1.73701 13.5397 1.75357 13.7422C1.76797 13.9182 1.82437 14.0549 1.95861 14.1894C2.11079 14.342 2.3987 14.5256 2.93799 14.6951C4.0286 15.0379 5.90085 15.25 8.99998 15.25C12.0991 15.25 13.9713 15.0379 15.062 14.6951C15.6013 14.5256 15.8892 14.342 16.0413 14.1894C16.1756 14.0549 16.232 13.9182 16.2464 13.7422C16.2629 13.5397 16.2234 13.2729 16.1142 12.9088C16.0174 12.5862 15.8837 12.2416 15.7298 11.8446C15.7101 11.7939 15.6901 11.7423 15.6698 11.6898C15.3265 10.8018 14.9116 9.69337 14.9116 8.5C14.9116 4.68603 12.1837 1.75 8.99998 1.75ZM1.58839 8.5C1.58839 4.0297 4.82556 0.25 8.99998 0.25C13.1744 0.25 16.4116 4.0297 16.4116 8.5C16.4116 9.3777 16.7183 10.2423 17.0689 11.1489C17.0885 11.1996 17.1084 11.2508 17.1283 11.3022C17.279 11.6902 17.4359 12.0944 17.5509 12.4778C17.6811 12.9118 17.7803 13.3883 17.7414 13.8644C17.7003 14.367 17.5069 14.8442 17.1033 15.2488C16.7177 15.6354 16.1799 15.9161 15.5117 16.1261C14.1875 16.5423 12.1183 16.75 8.99998 16.75C5.88161 16.75 3.81242 16.5423 2.4882 16.1261C1.82008 15.9161 1.28224 15.6354 0.896631 15.2488C0.493087 14.8442 0.299674 14.367 0.258563 13.8644C0.21961 13.3883 0.318845 12.9118 0.449034 12.4778C0.56405 12.0944 0.720956 11.6903 0.871597 11.3022C0.891568 11.2508 0.911429 11.1996 0.931068 11.1488C1.28163 10.2423 1.58839 9.3777 1.58839 8.5Z" fill="white"/>
<path fill-rule="evenodd" clip-rule="evenodd" d="M4.99997 15.25C5.41419 15.25 5.74997 15.5858 5.74997 16C5.74997 16.5394 6.03976 17.085 6.62155 17.5213C7.20357 17.9578 8.04199 18.25 8.99997 18.25C9.95796 18.25 10.7964 17.9578 11.3784 17.5213C11.9602 17.085 12.25 16.5394 12.25 16C12.25 15.5858 12.5858 15.25 13 15.25C13.4142 15.25 13.75 15.5858 13.75 16C13.75 17.1174 13.1443 18.0719 12.2784 18.7213C11.4127 19.3706 10.2511 19.75 8.99997 19.75C7.74882 19.75 6.58724 19.3706 5.72155 18.7213C4.85562 18.0719 4.24997 17.1174 4.24997 16C4.24997 15.5858 4.58576 15.25 4.99997 15.25Z" fill="white"/>
</svg>
