<svg width="12" height="12" viewBox="0 0 12 12" fill="none" xmlns="http://www.w3.org/2000/svg">
<path fill-rule="evenodd" clip-rule="evenodd" d="M0.25 1.5C0.25 0.809644 0.809644 0.25 1.5 0.25H3.5C4.19036 0.25 4.75 0.809644 4.75 1.5V10.5C4.75 11.1904 4.19036 11.75 3.5 11.75H1.5C0.809644 11.75 0.25 11.1904 0.25 10.5V1.5ZM1.75 1.75V10.25H3.25V1.75H1.75ZM7.25 1.5C7.25 0.809644 7.80964 0.25 8.5 0.25H10.5C11.1904 0.25 11.75 0.809644 11.75 1.5V10.5C11.75 11.1904 11.1904 11.75 10.5 11.75H8.5C7.80964 11.75 7.25 11.1904 7.25 10.5V1.5ZM8.75 1.75V10.25H10.25V1.75H8.75Z" fill="black"/>
</svg>
