<svg width="20" height="20" viewBox="0 0 20 20" fill="none" xmlns="http://www.w3.org/2000/svg">
<path d="M7.49492 12.5761L4.31294 9.39413C4.11768 9.19886 4.11628 8.87997 4.32986 8.70492C5.57183 7.68701 7.18933 7.35753 8.6744 7.71647C8.85021 7.75897 9.0378 7.71612 9.16842 7.591L12.8702 4.04496C12.9289 3.98874 12.973 3.91907 12.9987 3.84197L13.7035 1.72697C13.821 1.37433 14.2686 1.26865 14.5314 1.53149L18.7723 5.77235C19.0599 6.05992 18.9021 6.55224 18.5009 6.61911L16.6237 6.93201C16.5172 6.94977 16.4192 7.00154 16.3446 7.07958L12.5195 11.0782C12.3989 11.2044 12.3546 11.3839 12.3901 11.5548C12.6893 12.9958 12.348 14.5432 11.3661 15.7412C11.191 15.9548 10.8722 15.9534 10.6769 15.7581L7.49492 12.5761ZM7.49492 12.5761L1.45947 18.4594" stroke="black" stroke-width="1.5" stroke-linecap="round"/>
</svg>
