<svg width="13" height="12" viewBox="0 0 13 12" fill="none" xmlns="http://www.w3.org/2000/svg">
<path fill-rule="evenodd" clip-rule="evenodd" d="M10.8375 0.842117C11.6701 0.321765 12.75 0.920324 12.75 1.90212V10.0979C12.75 11.0797 11.6701 11.6782 10.8375 11.1579L4.2809 7.05999C3.49756 6.5704 3.49757 5.42958 4.2809 4.93999L10.8375 0.842117ZM11.25 2.35318L5.4151 5.99999L11.25 9.64681V2.35318ZM11.6325 9.88587L11.6321 9.88559ZM1 1.24999C1.41421 1.24999 1.75 1.58578 1.75 1.99999V9.99999C1.75 10.4142 1.41421 10.75 1 10.75C0.585786 10.75 0.25 10.4142 0.25 9.99999V1.99999C0.25 1.58578 0.585786 1.24999 1 1.24999Z" fill="black"/>
</svg>
