<svg width="14" height="18" viewBox="0 0 14 18" fill="none" xmlns="http://www.w3.org/2000/svg">
<path fill-rule="evenodd" clip-rule="evenodd" d="M7 1.75C5.75736 1.75 4.75 2.75736 4.75 4C4.75 5.24264 5.75736 6.25 7 6.25C8.24264 6.25 9.25 5.24264 9.25 4C9.25 2.75736 8.24264 1.75 7 1.75ZM3.25 4C3.25 1.92893 4.92893 0.25 7 0.25C9.07107 0.25 10.75 1.92893 10.75 4C10.75 6.07107 9.07107 7.75 7 7.75C4.92893 7.75 3.25 6.07107 3.25 4Z" fill="black"/>
<path fill-rule="evenodd" clip-rule="evenodd" d="M2.0746 10.8121C1.88506 11.0685 1.75 11.4356 1.75 12C1.75 14.225 3.96666 16.25 7 16.25C10.0333 16.25 12.25 14.225 12.25 12C12.25 11.4356 12.1149 11.0685 11.9254 10.8121C11.7321 10.5507 11.4307 10.335 10.9806 10.1672C10.0416 9.81711 8.67764 9.75 7 9.75C5.32236 9.75 3.95836 9.81711 3.01937 10.1672C2.56927 10.335 2.26789 10.5507 2.0746 10.8121ZM2.49535 8.76171C3.72793 8.30217 5.36393 8.25 7 8.25C8.63607 8.25 10.2721 8.30217 11.5046 8.76171C12.1403 8.99872 12.7176 9.36048 13.1316 9.92041C13.5493 10.4854 13.75 11.1836 13.75 12C13.75 15.2979 10.5941 17.75 7 17.75C3.40592 17.75 0.25 15.2979 0.25 12C0.25 11.1836 0.450726 10.4854 0.868421 9.92041C1.28237 9.36048 1.85966 8.99872 2.49535 8.76171Z" fill="black"/>
</svg>
