<svg width="22" height="22" viewBox="0 0 22 22" fill="none" xmlns="http://www.w3.org/2000/svg">
<path d="M15 11C15 13.2091 13.2091 15 11 15C8.79086 15 7 13.2091 7 11C7 8.79086 8.79086 7 11 7C13.2091 7 15 8.79086 15 11Z" stroke="black" stroke-width="1.5" stroke-linecap="round" stroke-linejoin="round"/>
<path d="M13.1946 2.78057C12.6523 0.406477 9.34772 0.406477 8.80538 2.78057C8.58846 3.73011 7.5281 4.18685 6.71507 3.6792L6.5198 3.55727C4.53034 2.31504 2.28189 4.70495 3.55727 6.70202C4.07833 7.51792 3.6408 8.61703 2.71071 8.82477C0.429764 9.33423 0.429765 12.6658 2.71071 13.1752C3.6408 13.383 4.07833 14.4821 3.55727 15.298C2.28189 17.295 4.53034 19.685 6.5198 18.4427L6.71508 18.3208C7.5281 17.8132 8.58846 18.2699 8.80538 19.2194C9.34772 21.5935 12.6523 21.5935 13.1946 19.2194C13.4115 18.2699 14.4719 17.8132 15.2849 18.3208L15.4802 18.4427C17.4697 19.685 19.7181 17.295 18.4427 15.298C17.9217 14.4821 18.3592 13.383 19.2893 13.1752C21.5702 12.6658 21.5702 9.33423 19.2893 8.82477C18.3592 8.61703 17.9217 7.51792 18.4427 6.70202C19.7181 4.70495 17.4697 2.31505 15.4802 3.55727L15.2849 3.6792C14.4719 4.18685 13.4115 3.73011 13.1946 2.78057Z" stroke="black" stroke-width="1.5" stroke-linecap="round" stroke-linejoin="round"/>
</svg>
