<svg width="20" height="16" viewBox="0 0 20 16" fill="none" xmlns="http://www.w3.org/2000/svg">
<path fill-rule="evenodd" clip-rule="evenodd" d="M19.75 4C19.75 4.41421 19.4142 4.75 19 4.75L16 4.75C15.5858 4.75 15.25 4.41421 15.25 4C15.25 3.58579 15.5858 3.25 16 3.25L19 3.25C19.4142 3.25 19.75 3.58579 19.75 4ZM10.25 4C10.25 4.41421 9.91421 4.75 9.5 4.75L1 4.75C0.585787 4.75 0.25 4.41421 0.25 4C0.25 3.58579 0.585787 3.25 1 3.25L9.5 3.25C9.91421 3.25 10.25 3.58579 10.25 4Z" fill="black"/>
<path fill-rule="evenodd" clip-rule="evenodd" d="M19.75 12C19.75 12.4142 19.4142 12.75 19 12.75H10.5C10.0858 12.75 9.75 12.4142 9.75 12C9.75 11.5858 10.0858 11.25 10.5 11.25H19C19.4142 11.25 19.75 11.5858 19.75 12ZM4.75 12C4.75 12.4142 4.41421 12.75 4 12.75H1C0.585787 12.75 0.25 12.4142 0.25 12C0.25 11.5858 0.585787 11.25 1 11.25H4C4.41421 11.25 4.75 11.5858 4.75 12Z" fill="black"/>
<path fill-rule="evenodd" clip-rule="evenodd" d="M9.25 3C9.25 1.48122 10.4812 0.25 12 0.25H14C15.5188 0.25 16.75 1.48122 16.75 3V5C16.75 6.51878 15.5188 7.75 14 7.75H12C10.4812 7.75 9.25 6.51878 9.25 5V3ZM12 1.75C11.3096 1.75 10.75 2.30964 10.75 3V5C10.75 5.69036 11.3096 6.25 12 6.25H14C14.6904 6.25 15.25 5.69036 15.25 5V3C15.25 2.30964 14.6904 1.75 14 1.75H12Z" fill="black"/>
<path fill-rule="evenodd" clip-rule="evenodd" d="M3.25 11C3.25 9.48122 4.48122 8.25 6 8.25H8C9.51878 8.25 10.75 9.48122 10.75 11V13C10.75 14.5188 9.51878 15.75 8 15.75H6C4.48122 15.75 3.25 14.5188 3.25 13V11ZM6 9.75C5.30964 9.75 4.75 10.3096 4.75 11V13C4.75 13.6904 5.30964 14.25 6 14.25H8C8.69036 14.25 9.25 13.6904 9.25 13V11C9.25 10.3096 8.69036 9.75 8 9.75H6Z" fill="black"/>
</svg>
