<svg width="18" height="18" viewBox="0 0 18 18" fill="none" xmlns="http://www.w3.org/2000/svg">
<path fill-rule="evenodd" clip-rule="evenodd" d="M2.25 3.25H15.75V15C15.75 16.5188 14.5188 17.75 13 17.75H5C3.48122 17.75 2.25 16.5188 2.25 15V3.25ZM3.75 4.75V15C3.75 15.6904 4.30964 16.25 5 16.25H13C13.6904 16.25 14.25 15.6904 14.25 15V4.75H3.75Z" fill="black"/>
<path fill-rule="evenodd" clip-rule="evenodd" d="M0.25 4C0.25 3.58579 0.585786 3.25 1 3.25H17C17.4142 3.25 17.75 3.58579 17.75 4C17.75 4.41421 17.4142 4.75 17 4.75H1C0.585786 4.75 0.25 4.41421 0.25 4Z" fill="black"/>
<path fill-rule="evenodd" clip-rule="evenodd" d="M4.25 3C4.25 1.48122 5.48122 0.25 7 0.25H11C12.5188 0.25 13.75 1.48122 13.75 3V4.75H4.25V3ZM7 1.75C6.30964 1.75 5.75 2.30964 5.75 3V3.25H12.25V3C12.25 2.30964 11.6904 1.75 11 1.75H7Z" fill="black"/>
<path fill-rule="evenodd" clip-rule="evenodd" d="M9 6.25C9.41421 6.25 9.75 6.58579 9.75 7V14C9.75 14.4142 9.41421 14.75 9 14.75C8.58579 14.75 8.25 14.4142 8.25 14V7C8.25 6.58579 8.58579 6.25 9 6.25Z" fill="black"/>
<path fill-rule="evenodd" clip-rule="evenodd" d="M12 6.25C12.4142 6.25 12.75 6.58579 12.75 7V14C12.75 14.4142 12.4142 14.75 12 14.75C11.5858 14.75 11.25 14.4142 11.25 14V7C11.25 6.58579 11.5858 6.25 12 6.25Z" fill="black"/>
<path fill-rule="evenodd" clip-rule="evenodd" d="M6 6.25C6.41421 6.25 6.75 6.58579 6.75 7V14C6.75 14.4142 6.41421 14.75 6 14.75C5.58579 14.75 5.25 14.4142 5.25 14V7C5.25 6.58579 5.58579 6.25 6 6.25Z" fill="black"/>
</svg>
