<svg width="20" height="20" viewBox="0 0 20 20" fill="none" xmlns="http://www.w3.org/2000/svg">
<path fill-rule="evenodd" clip-rule="evenodd" d="M3 1.75C2.30964 1.75 1.75 2.30964 1.75 3V17C1.75 17.6904 2.30964 18.25 3 18.25H17C17.6904 18.25 18.25 17.6904 18.25 17V7.82843C18.25 7.49691 18.1183 7.17896 17.8839 6.94454L13.0555 2.11612C12.821 1.8817 12.5031 1.75 12.1716 1.75H3ZM0.25 3C0.25 1.48122 1.48122 0.25 3 0.25H12.1716C12.9009 0.25 13.6004 0.539731 14.1161 1.05546L18.9445 5.88388C19.4603 6.39961 19.75 7.09908 19.75 7.82843V17C19.75 18.5188 18.5188 19.75 17 19.75H3C1.48122 19.75 0.25 18.5188 0.25 17V3Z" fill="black"/>
<path fill-rule="evenodd" clip-rule="evenodd" d="M6 4.25C6.41421 4.25 6.75 4.58579 6.75 5L6.75 13.1893L7.46967 12.4697C7.76256 12.1768 8.23744 12.1768 8.53033 12.4697C8.82322 12.7626 8.82322 13.2374 8.53033 13.5303L6.53033 15.5303C6.23744 15.8232 5.76256 15.8232 5.46967 15.5303L3.46967 13.5303C3.17678 13.2374 3.17678 12.7626 3.46967 12.4697C3.76256 12.1768 4.23744 12.1768 4.53033 12.4697L5.25 13.1893L5.25 5C5.25 4.58579 5.58579 4.25 6 4.25Z" fill="black"/>
<path fill-rule="evenodd" clip-rule="evenodd" d="M13.75 1V5C13.75 5.69036 14.3096 6.25 15 6.25H19V7.75H15C13.4812 7.75 12.25 6.51878 12.25 5V1H13.75Z" fill="black"/>
</svg>
