<svg width="20" height="15" viewBox="0 0 20 15" fill="none" xmlns="http://www.w3.org/2000/svg">
<path fill-rule="evenodd" clip-rule="evenodd" d="M1 8.25C1.41421 8.25 1.75 8.58579 1.75 9V12C1.75 12.6904 2.30964 13.25 3 13.25H17C17.6904 13.25 18.25 12.6904 18.25 12V9C18.25 8.58579 18.5858 8.25 19 8.25C19.4142 8.25 19.75 8.58579 19.75 9V12C19.75 13.5188 18.5188 14.75 17 14.75H3C1.48122 14.75 0.25 13.5188 0.25 12V9C0.25 8.58579 0.585786 8.25 1 8.25Z" fill="white"/>
<path fill-rule="evenodd" clip-rule="evenodd" d="M10 0.25C10.4142 0.25 10.75 0.585786 10.75 1V8.18934L11.4697 7.46967C11.7626 7.17678 12.2374 7.17678 12.5303 7.46967C12.8232 7.76256 12.8232 8.23744 12.5303 8.53033L10.5303 10.5303C10.2374 10.8232 9.76256 10.8232 9.46967 10.5303L7.46967 8.53033C7.17678 8.23744 7.17678 7.76256 7.46967 7.46967C7.76256 7.17678 8.23744 7.17678 8.53033 7.46967L9.25 8.18934V1C9.25 0.585786 9.58579 0.25 10 0.25Z" fill="white"/>
</svg>
