<svg width="22" height="22" viewBox="0 0 22 22" fill="none" xmlns="http://www.w3.org/2000/svg">
<path fill-rule="evenodd" clip-rule="evenodd" d="M11 1.75C5.89137 1.75 1.75 5.89137 1.75 11C1.75 16.1086 5.89137 20.25 11 20.25C16.1086 20.25 20.25 16.1086 20.25 11C20.25 5.89137 16.1086 1.75 11 1.75ZM0.25 11C0.25 5.06294 5.06294 0.25 11 0.25C16.9371 0.25 21.75 5.06294 21.75 11C21.75 16.9371 16.9371 21.75 11 21.75C5.06294 21.75 0.25 16.9371 0.25 11Z" fill="black"/>
<path fill-rule="evenodd" clip-rule="evenodd" d="M4 18L3.53284 17.4133L2.9461 17.8804L3.88043 19.0539L4.46686 18.587L4.46797 18.5861L4.47414 18.5812L4.50219 18.5594C4.52774 18.5396 4.5668 18.5097 4.61831 18.471C4.72137 18.3937 4.87402 18.2817 5.06793 18.1467C5.45644 17.876 6.00688 17.5152 6.653 17.1552C7.97163 16.4204 9.58217 15.75 11 15.75C12.4178 15.75 14.0284 16.4204 15.347 17.1552C15.9931 17.5152 16.5436 17.876 16.9321 18.1467C17.126 18.2817 17.2786 18.3937 17.3817 18.471C17.4332 18.5097 17.4723 18.5396 17.4978 18.5594L17.5259 18.5812L17.532 18.5861L17.5328 18.5867L18.1196 19.0539L19.0539 17.8804L18.4672 17.4133L18 18C18.4672 17.4133 18.4672 17.4133 18.4672 17.4133L18.4655 17.412L18.4625 17.4096L18.4523 17.4016L18.416 17.3732C18.3848 17.3491 18.3397 17.3146 18.2819 17.2712C18.1663 17.1844 17.9993 17.062 17.7895 16.9158C17.3705 16.624 16.777 16.2348 16.0771 15.8448C14.7038 15.0796 12.8143 14.25 11 14.25C9.18567 14.25 7.29621 15.0796 5.92288 15.8448C5.22301 16.2348 4.62949 16.624 4.21053 16.9158C4.0007 17.062 3.83374 17.1844 3.71812 17.2712C3.66029 17.3146 3.61523 17.3491 3.58402 17.3732L3.54768 17.4016L3.53752 17.4096L3.53449 17.412L3.53284 17.4133C3.53284 17.4133 3.53284 17.4133 4 18Z" fill="black"/>
<path fill-rule="evenodd" clip-rule="evenodd" d="M11 7.75C9.75736 7.75 8.75 8.75736 8.75 10C8.75 11.2426 9.75736 12.25 11 12.25C12.2426 12.25 13.25 11.2426 13.25 10C13.25 8.75736 12.2426 7.75 11 7.75ZM7.25 10C7.25 7.92893 8.92893 6.25 11 6.25C13.0711 6.25 14.75 7.92893 14.75 10C14.75 12.0711 13.0711 13.75 11 13.75C8.92893 13.75 7.25 12.0711 7.25 10Z" fill="black"/>
</svg>
