<svg width="22" height="18" viewBox="0 0 22 18" fill="none" xmlns="http://www.w3.org/2000/svg">
<path fill-rule="evenodd" clip-rule="evenodd" d="M1.75015 8.99765L1.74976 8.99997C1.74976 8.99997 1.74991 9.0001 1.75037 9.00324C1.75337 9.02356 1.76915 9.13077 1.838 9.34524C1.90986 9.56908 2.02295 9.85935 2.18135 10.1961C2.49808 10.8694 2.98335 11.7016 3.64773 12.5311C3.90666 12.8544 3.85448 13.3264 3.53118 13.5854C3.20787 13.8443 2.73588 13.7921 2.47694 13.4688C1.73237 12.5391 1.18635 11.6048 0.82403 10.8346C0.642897 10.4495 0.504523 10.0988 0.409799 9.80376C0.32271 9.53249 0.249756 9.24034 0.249756 8.99997C0.249756 8.74579 0.331745 8.42917 0.430822 8.13194C0.538631 7.80851 0.696632 7.42191 0.90444 6.99798C1.31996 6.15032 1.94813 5.12591 2.80799 4.13377C4.52969 2.14719 7.22096 0.249969 10.9998 0.249969C11.414 0.249969 11.7498 0.585756 11.7498 0.999969C11.7498 1.41418 11.414 1.74997 10.9998 1.74997C7.77855 1.74997 5.46982 3.35275 3.94152 5.11617C3.17638 5.99903 2.61705 6.91212 2.25132 7.65821C2.0685 8.03116 1.93744 8.35549 1.85385 8.60628C1.77044 8.85651 1.75278 8.97933 1.75015 8.99765ZM18.4631 4.41452C18.7864 4.15562 19.2584 4.20786 19.5173 4.53119C20.2638 5.46343 20.8111 6.40072 21.1743 7.17322C21.3558 7.55942 21.4945 7.91112 21.5894 8.20689C21.6767 8.47882 21.7498 8.7715 21.7498 9.01203C21.7498 9.26631 21.6677 9.5828 21.5686 9.87978C21.4608 10.2029 21.3027 10.5891 21.0949 11.0125C20.6793 11.8591 20.0511 12.882 19.1911 13.8726C17.4692 15.8563 14.778 17.75 10.9998 17.75C10.5855 17.75 10.2498 17.4142 10.2498 17C10.2498 16.5858 10.5855 16.25 10.9998 16.25C14.2215 16.25 16.5303 14.6497 18.0584 12.8893C18.8235 12.008 19.3827 11.0964 19.7484 10.3515C19.9312 9.97917 20.0622 9.65535 20.1457 9.40495C20.229 9.15546 20.2467 9.03287 20.2494 9.01439C20.2496 9.01239 20.2498 9.01203 20.2498 9.01203C20.2498 9.01203 20.2496 9.01188 20.2491 9.00879C20.2462 8.98855 20.2304 8.88087 20.1612 8.66523C20.0891 8.44058 19.9756 8.14926 19.8168 7.81139C19.4992 7.13575 19.0126 6.30069 18.3464 5.46875C18.0875 5.14542 18.1398 4.67342 18.4631 4.41452Z" fill="black"/>
<path fill-rule="evenodd" clip-rule="evenodd" d="M19.5303 0.469666C19.8231 0.762559 19.8231 1.23743 19.5303 1.53033L3.53025 17.5303C3.23736 17.8232 2.76249 17.8232 2.46959 17.5303C2.1767 17.2374 2.1767 16.7626 2.46959 16.4697L18.4696 0.469666C18.7625 0.176773 19.2374 0.176773 19.5303 0.469666Z" fill="black"/>
<path fill-rule="evenodd" clip-rule="evenodd" d="M10.9999 5.75C9.205 5.75 7.74992 7.20507 7.74992 9C7.74992 9.8997 8.11452 10.7128 8.70584 11.3021L7.64702 12.3646C6.78483 11.5054 6.24992 10.3145 6.24992 9C6.24992 6.37664 8.37657 4.25 10.9999 4.25C12.3052 4.25 13.4888 4.77749 14.3466 5.62919L13.2897 6.69363C12.7015 6.10955 11.8934 5.75 10.9999 5.75Z" fill="black"/>
</svg>
