<svg width="20" height="18" viewBox="0 0 20 18" fill="none" xmlns="http://www.w3.org/2000/svg">
<path fill-rule="evenodd" clip-rule="evenodd" d="M0.25 8C0.25 6.48122 1.48122 5.25 3 5.25H6.75V12.75H3C1.48122 12.75 0.25 11.5188 0.25 10V8ZM3 6.75C2.30964 6.75 1.75 7.30964 1.75 8V10C1.75 10.6904 2.30964 11.25 3 11.25H5.25V6.75H3Z" fill="black"/>
<path fill-rule="evenodd" clip-rule="evenodd" d="M13.25 2.35319L6.75 6.41569V11.5843L13.25 15.6468V2.35319ZM12.8375 0.842132C13.6701 0.32178 14.75 0.920339 14.75 1.90213V16.0979C14.75 17.0797 13.6701 17.6782 12.8375 17.1579L5.25 12.4157V5.58432L12.8375 0.842132Z" fill="black"/>
<path fill-rule="evenodd" clip-rule="evenodd" d="M16.4425 12.7483C18.4358 10.5335 18.4358 6.9665 16.4425 4.75173C16.1654 4.44385 16.1904 3.96963 16.4983 3.69254C16.8062 3.41544 17.2804 3.4404 17.5575 3.74828C20.0642 6.53351 20.0642 10.9665 17.5575 13.7517C17.2804 14.0596 16.8062 14.0846 16.4983 13.8075C16.1904 13.5304 16.1654 13.0562 16.4425 12.7483Z" fill="black"/>
</svg>
