<svg width="18" height="17" viewBox="0 0 18 17" fill="none" xmlns="http://www.w3.org/2000/svg">
<path d="M13.5 7.75C13.0858 7.75 12.75 8.08579 12.75 8.5C12.75 8.91421 13.0858 9.25 13.5 9.25V7.75ZM14.5 9.25C14.9142 9.25 15.25 8.91421 15.25 8.5C15.25 8.08579 14.9142 7.75 14.5 7.75V9.25ZM3 1.75H15V0.25H3V1.75ZM16.25 3V14H17.75V3H16.25ZM15 15.25H3V16.75H15V15.25ZM1.75 14V3H0.25V14H1.75ZM3 15.25C2.30964 15.25 1.75 14.6904 1.75 14H0.25C0.25 15.5188 1.48122 16.75 3 16.75V15.25ZM16.25 14C16.25 14.6904 15.6904 15.25 15 15.25V16.75C16.5188 16.75 17.75 15.5188 17.75 14H16.25ZM15 1.75C15.6904 1.75 16.25 2.30964 16.25 3H17.75C17.75 1.48122 16.5188 0.25 15 0.25V1.75ZM3 0.25C1.48122 0.25 0.25 1.48122 0.25 3H1.75C1.75 2.30964 2.30964 1.75 3 1.75V0.25ZM11.5 6.75H16.5V5.25H11.5V6.75ZM16.25 6.5V10.5H17.75V6.5H16.25ZM16.5 10.25H11.5V11.75H16.5V10.25ZM11.75 10.5V6.5H10.25V10.5H11.75ZM11.5 10.25C11.6381 10.25 11.75 10.3619 11.75 10.5H10.25C10.25 11.1904 10.8096 11.75 11.5 11.75V10.25ZM16.25 10.5C16.25 10.3619 16.3619 10.25 16.5 10.25V11.75C17.1904 11.75 17.75 11.1904 17.75 10.5H16.25ZM16.5 6.75C16.3619 6.75 16.25 6.63807 16.25 6.5H17.75C17.75 5.80964 17.1904 5.25 16.5 5.25V6.75ZM11.5 5.25C10.8096 5.25 10.25 5.80964 10.25 6.5H11.75C11.75 6.63807 11.6381 6.75 11.5 6.75V5.25ZM13.5 9.25H14.5V7.75H13.5V9.25Z" fill="black"/>
</svg>
